<svg width="16" height="16" viewBox="0 0 16 16" fill="none" xmlns="http://www.w3.org/2000/svg">
<g clip-path="url(#clip0_6_6)">
<path d="M15.105 15.1053H0.887817V0.887897H15.105V15.1053Z" fill="url(#paint0_linear_6_6)"/>
<path d="M1.99844 1.13766C1.72284 1.13766 1.54248 1.37071 1.49992 1.69672C1.49992 1.69672 1.14478 3.56263 1.14478 7.52596C1.14478 11.4908 1.49992 14.085 1.49992 14.085C1.5326 14.3983 1.72284 14.6438 1.99844 14.6438H14.3044C14.5792 14.6438 14.7978 14.4257 14.8032 14.085C14.8032 14.085 14.6659 11.0463 14.6659 8.07869C14.6659 5.11113 14.8032 1.69672 14.8032 1.69672C14.8095 1.393 14.5792 1.13766 14.3044 1.13766H1.99844Z" fill="url(#paint1_linear_6_6)"/>
<path d="M8.90933 2.56381C9.29766 2.72669 10.8578 3.57048 11.0491 3.84C10.264 3.94361 8.72466 4.34435 7.89532 4.74762L7.84668 4.84566C8.76114 4.64427 10.0391 4.53915 10.9209 4.49127C10.5918 4.97383 10.3737 5.20384 9.87318 5.75024L9.82657 5.85587C10.7806 5.28313 11.0491 5.24184 11.9281 4.72685C12.2604 5.21828 12.3405 6.35008 12.3531 7.24706C12.6391 6.67812 12.9864 4.53408 12.842 4.14702C13.4254 3.74678 13.5042 3.42406 13.5042 3.42406C12.9694 3.47042 12.6746 3.47954 12.386 3.57048C11.7034 3.15175 10.1371 2.59877 8.95492 2.46527L8.90933 2.56381Z" fill="url(#paint2_linear_6_6)"/>
<path d="M3.08583 9.22569C3.00831 9.94029 2.9769 10.4512 3.07924 11.0222C2.79021 11.1025 2.5369 11.1136 2.30385 11.2127L2.25952 11.311C2.63037 11.5395 2.93181 11.7145 3.3513 11.9106C3.57548 12.3924 3.80752 12.7174 4.18318 13.0882L4.22903 12.9889C4.1614 12.7151 4.07375 12.4889 4.10693 12.1895C4.57278 12.3255 4.97301 12.3969 5.50395 12.4131L5.54879 12.3138C5.08193 12.133 4.61508 11.9898 4.23714 11.6337C4.35619 11.3031 4.49197 11.044 4.71412 10.7167L4.76073 10.6164C4.35974 10.6767 3.99598 10.8233 3.64894 10.8912C3.37536 10.4102 3.26897 9.75233 3.13142 9.12614L3.08583 9.22569Z" fill="url(#paint3_linear_6_6)"/>
<path d="M5.46628 5.96657C5.46628 5.96657 5.1656 5.93794 4.6691 5.95314C4.24911 5.97239 3.62267 6.00963 3.31844 6.09905L3.2736 6.19708C3.75794 6.2176 4.42111 6.34755 4.67518 6.60238C4.67518 6.60238 3.93981 7.2653 3.21179 8.71628C3.21179 8.71628 4.53206 7.47732 5.10455 7.17006C5.10455 7.17006 5.40396 8.16786 5.61219 8.66739L5.65804 8.56784C5.71554 8.24664 5.85866 7.376 6.10235 6.84354C6.10235 6.84354 6.18873 6.79085 6.611 6.75032C7.03403 6.71232 7.63261 6.68977 8.76897 6.88938L8.81533 6.79161C8.55568 6.63835 7.52166 6.19505 6.42684 6.04763H6.46256C6.61303 5.60559 6.80048 5.27249 6.80048 5.27249C6.56844 5.30542 5.90831 5.61395 5.46628 5.96657Z" fill="url(#paint4_linear_6_6)"/>
<path d="M8.23215 12.0881C8.21619 11.8946 8.20353 11.7297 8.19365 11.5116C7.96415 11.8229 7.76783 12.0681 7.51477 12.3528C7.24676 12.4273 6.94026 12.424 6.66111 12.421C6.55041 12.4197 6.44402 12.4187 6.34624 12.422L6.30115 12.5213C6.56105 12.655 6.81588 12.7371 7.08819 12.7931C6.86755 12.994 6.57245 13.147 6.36549 13.2868L6.31964 13.3846C6.76395 13.2795 7.3486 13.091 7.78404 12.8339C8.01076 12.8438 8.22253 12.8291 8.37781 12.7979C8.37781 12.7979 8.42442 12.6966 8.42442 12.6991C8.39605 12.5988 8.30713 12.5375 8.28053 12.3969C8.68913 12.08 8.98475 11.7915 9.32621 11.448L9.37358 11.3485C9.03617 11.5812 8.62681 11.9012 8.23215 12.0881Z" fill="url(#paint5_linear_6_6)"/>
<mask id="mask0_6_6" style="mask-type:luminance" maskUnits="userSpaceOnUse" x="-3" y="-3" width="22" height="22">
<path d="M-2.66663 -2.6666H18.6666V18.6667H-2.66663V-2.6666Z" fill="white"/>
</mask>
<g mask="url(#mask0_6_6)">
<path d="M11.9735 4.62684C11.0963 5.14284 10.8275 5.18616 9.87301 5.75713C10.4288 5.1545 10.6221 4.89789 10.9658 4.39329C10.0863 4.4399 8.80783 4.54578 7.89514 4.74793C8.68978 4.32363 10.2646 3.85171 11.0963 3.73949C10.9032 3.47351 9.34283 2.6282 8.95475 2.46532C10.1899 2.56158 11.7002 3.02312 12.4322 3.47072C12.7202 3.3808 13.0194 3.37624 13.5557 3.32862C13.4191 3.56318 13.4133 3.69871 12.8872 4.04726C13.0331 4.43711 12.685 6.57963 12.3975 7.14731C12.3871 6.25083 12.3086 5.11878 11.9735 4.62684Z" fill="white"/>
<path d="M5.54889 12.3139C5.04455 12.127 4.68155 11.9091 4.28182 11.5355C4.40164 11.2052 4.53792 10.9471 4.76084 10.6162C4.35098 10.6775 4.04877 10.7236 3.69566 10.7905C3.40815 10.2874 3.27769 9.80183 3.13153 9.12599C3.053 9.84236 3.02336 10.3538 3.12444 10.924C2.8002 11.0139 2.57044 11.0925 2.30396 11.2128C2.67784 11.4415 2.97954 11.6176 3.39675 11.8124C3.62118 12.2932 3.85296 12.6182 4.22913 12.989C4.14098 12.6731 4.11768 12.4221 4.1539 12.0905C4.62 12.2263 5.01922 12.298 5.54889 12.3139Z" fill="white"/>
<path d="M6.86147 5.1874C6.70442 5.39132 6.52229 5.77154 6.47314 5.9481C7.77264 6.12415 8.81528 6.79163 8.81528 6.79163C7.67891 6.59 7.08008 6.61507 6.65604 6.65307C6.23478 6.69284 6.1484 6.74249 6.1484 6.74249C5.84189 7.41428 5.65798 8.56761 5.65798 8.56761C5.45128 8.06884 5.15237 7.07079 5.15237 7.07079C4.57912 7.37755 3.26038 8.61777 3.26038 8.61777C3.9851 7.16578 4.72098 6.50514 4.72098 6.50514C4.46792 6.24828 3.80399 6.12061 3.31838 6.09908C3.57043 5.99623 4.21739 5.87591 4.71389 5.85286C5.21139 5.83892 5.51233 5.86704 5.51233 5.86704C5.95588 5.51671 6.62944 5.2216 6.86147 5.1874Z" fill="white"/>
<path d="M8.23996 11.4137C8.01071 11.7251 7.81313 11.9692 7.5588 12.2537C7.12158 12.3766 6.77277 12.4219 6.34619 12.4219C6.60812 12.5572 6.86143 12.638 7.1345 12.6952C6.86143 12.9422 6.63066 13.1183 6.3657 13.287C6.81001 13.1816 7.39415 12.9929 7.82909 12.736C8.05631 12.7446 8.26884 12.7299 8.42462 12.699C8.38384 12.5676 8.35902 12.4693 8.32609 12.2978C8.73569 11.9806 9.03283 11.6934 9.37353 11.3486C9.01079 11.6017 8.69795 11.7904 8.27821 11.989C8.26022 11.7955 8.24984 11.6316 8.23996 11.4137Z" fill="white"/>
</g>
</g>
<defs>
<linearGradient id="paint0_linear_6_6" x1="7.9964" y1="0.537941" x2="7.9964" y2="15.546" gradientUnits="userSpaceOnUse">
<stop stop-color="#00784B"/>
<stop offset="0.6" stop-color="#89C8AC"/>
<stop offset="1" stop-color="#00955F"/>
</linearGradient>
<linearGradient id="paint1_linear_6_6" x1="7.97406" y1="-2.64402" x2="7.97406" y2="14.2209" gradientUnits="userSpaceOnUse">
<stop stop-color="#00955F"/>
<stop offset="0.3" stop-color="#89C8AC"/>
<stop offset="0.55" stop-color="#00955F"/>
<stop offset="0.835165" stop-color="#00784B"/>
<stop offset="0.878523" stop-color="#00784B"/>
<stop offset="1" stop-color="#009D70"/>
</linearGradient>
<linearGradient id="paint2_linear_6_6" x1="10.6756" y1="13.2896" x2="10.6756" y2="2.37591" gradientUnits="userSpaceOnUse">
<stop stop-color="#00A77C"/>
<stop offset="1" stop-color="#00955F"/>
</linearGradient>
<linearGradient id="paint3_linear_6_6" x1="3.90412" y1="13.2903" x2="3.90412" y2="2.37329" gradientUnits="userSpaceOnUse">
<stop stop-color="#00A77C"/>
<stop offset="1" stop-color="#00955F"/>
</linearGradient>
<linearGradient id="paint4_linear_6_6" x1="6.01353" y1="13.2879" x2="6.01353" y2="2.37753" gradientUnits="userSpaceOnUse">
<stop stop-color="#00A77C"/>
<stop offset="1" stop-color="#00955F"/>
</linearGradient>
<linearGradient id="paint5_linear_6_6" x1="7.83725" y1="13.2895" x2="7.83725" y2="2.37568" gradientUnits="userSpaceOnUse">
<stop stop-color="#00A77C"/>
<stop offset="1" stop-color="#00955F"/>
</linearGradient>
<clipPath id="clip0_6_6">
<rect width="16" height="16" fill="white"/>
</clipPath>
</defs>
</svg>
