<svg width="155" height="46" viewBox="0 0 155 46" fill="none" xmlns="http://www.w3.org/2000/svg">
<g clip-path="url(#clip0_1_2296)">
<path d="M46.4868 46H0V0H46.4868V46Z" fill="url(#paint0_linear_1_2296)"/>
<path d="M3.63205 0.809914C2.7309 0.809914 2.14118 1.5631 2.00204 2.61789C2.00204 2.61789 0.84082 8.65565 0.84082 21.4778C0.84082 34.3057 2.00204 42.699 2.00204 42.699C2.10805 43.7136 2.7309 44.5061 3.63205 44.5061H43.8688C44.7666 44.5061 45.4822 43.8013 45.4988 42.699C45.4988 42.699 45.0499 32.8674 45.0499 23.2669C45.0499 13.6657 45.4988 2.61789 45.4988 2.61789C45.5195 1.63522 44.7666 0.809914 43.8688 0.809914H3.63205Z" fill="url(#paint1_linear_1_2296)"/>
<path d="M26.2284 5.42405C27.4982 5.95103 32.5986 8.68102 33.2239 9.5514C30.658 9.88825 25.6238 11.184 22.9121 12.4896L22.7539 12.8067C25.7439 12.1552 29.9225 11.8142 32.8048 11.6602C31.7281 13.2206 31.0158 13.9656 29.38 15.7326L29.2276 16.0752C32.3468 14.2213 33.2239 14.0877 36.0988 12.4224C37.1855 14.0123 37.4455 17.6733 37.4886 20.5754C38.4229 18.7347 39.5592 11.7987 39.0863 10.5455C40.9938 9.25062 41.2514 8.20731 41.2514 8.20731C39.5038 8.35729 38.5397 8.38598 37.5963 8.68102C35.3633 7.32545 30.2422 5.53715 26.3767 5.10442L26.2284 5.42405Z" fill="url(#paint2_linear_1_2296)"/>
<path d="M7.18615 26.9779C6.9327 29.2891 6.83 30.9422 7.16544 32.7895C6.21958 33.0493 5.39132 33.0861 4.63015 33.4066L4.48438 33.723C5.69694 34.463 6.6834 35.0302 8.05499 35.6637C8.788 37.2225 9.54586 38.274 10.7742 39.4739L10.9249 39.1526C10.7038 38.2667 10.4172 37.5348 10.5257 36.566C12.0488 37.0053 13.3567 37.2381 15.0935 37.2905L15.2393 36.9693C13.7128 36.3833 12.1872 35.921 10.9506 34.7687C11.3407 33.6992 11.7846 32.8608 12.5102 31.8011L12.6634 31.4765C11.3523 31.6716 10.1621 32.1469 9.02819 32.3657C8.13285 30.8094 7.78581 28.681 7.33524 26.655L7.18615 26.9779Z" fill="url(#paint3_linear_1_2296)"/>
<path d="M14.9691 16.4324C14.9691 16.4324 13.9868 16.3406 12.3626 16.389C10.9902 16.4513 8.94109 16.5726 7.94718 16.8611L7.80058 17.1782C9.38421 17.2454 11.5518 17.6651 12.3833 18.4895C12.3833 18.4895 9.97807 20.6352 7.59766 25.3289C7.59766 25.3289 11.9154 21.3203 13.7872 20.327C13.7872 20.327 14.7662 23.5545 15.4471 25.1715L15.5961 24.8486C15.785 23.8102 16.2529 20.9933 17.0497 19.2698C17.0497 19.2698 17.3313 19.1001 18.712 18.9682C20.0961 18.8444 22.0524 18.7723 25.7688 19.4189L25.9195 19.1018C25.0714 18.6067 21.6896 17.1725 18.1099 16.6947H18.2275C18.7195 15.2645 19.3324 14.1868 19.3324 14.1868C18.5737 14.2933 16.4145 15.2924 14.9691 16.4324Z" fill="url(#paint4_linear_1_2296)"/>
<path d="M24.0139 36.2383C23.9608 35.6113 23.9203 35.0786 23.888 34.373C23.1367 35.381 22.4957 36.1736 21.6674 37.0948C20.7903 37.3365 19.7881 37.3259 18.8745 37.3152C18.5134 37.3119 18.1672 37.3078 17.8475 37.3193L17.6992 37.6398C18.5498 38.0733 19.3831 38.338 20.2734 38.5192C19.552 39.1691 18.5863 39.6641 17.9104 40.1173L17.7597 40.4329C19.2124 40.0936 21.1241 39.4838 22.5487 38.6511C23.29 38.6839 23.9824 38.6347 24.4901 38.5356C24.4901 38.5356 24.6425 38.2069 24.6425 38.2151C24.5497 37.8906 24.2582 37.6922 24.1721 37.2382C25.5072 36.2129 26.4738 35.2786 27.5911 34.1672L27.746 33.846C26.6427 34.5983 25.3043 35.6335 24.0139 36.2383Z" fill="url(#paint5_linear_1_2296)"/>
<mask id="mask0_1_2296" style="mask-type:luminance" maskUnits="userSpaceOnUse" x="-12" y="-12" width="179" height="70">
<path d="M-11.6299 -11.4993H166.616V57.4995H-11.6299V-11.4993Z" fill="white"/>
</mask>
<g mask="url(#mask0_1_2296)">
<path d="M36.2471 12.0983C33.378 13.7669 32.4992 13.9079 29.3791 15.7552C31.1963 13.8046 31.8283 12.9752 32.9522 11.3427C30.0765 11.4935 25.8963 11.836 22.9121 12.4892C25.5104 11.1165 30.6596 9.59041 33.378 9.22734C32.7477 8.36597 27.6456 5.63189 26.3767 5.10491C30.4153 5.41552 35.3534 6.9096 37.7462 8.35778C38.6879 8.06601 39.6678 8.05208 41.4195 7.898C40.9731 8.65692 40.9549 9.09539 39.2346 10.2231C39.7117 11.4844 38.5736 18.4164 37.6336 20.2522C37.5996 17.3526 37.3428 13.6899 36.2471 12.0983Z" fill="white"/>
</g>
<mask id="mask1_1_2296" style="mask-type:luminance" maskUnits="userSpaceOnUse" x="-12" y="-12" width="179" height="70">
<path d="M-11.6299 -11.4993H166.616V57.4995H-11.6299V-11.4993Z" fill="white"/>
</mask>
<g mask="url(#mask1_1_2296)">
<path d="M15.2399 36.9692C13.5916 36.3643 12.4039 35.6595 11.0969 34.4506C11.4887 33.3819 11.9351 32.5468 12.6631 31.4764C11.323 31.6739 10.3349 31.8239 9.18033 32.0395C8.24026 30.4126 7.8137 28.8415 7.3358 26.6549C7.07904 28.9726 6.98213 30.6273 7.31261 32.4714C6.25244 32.7631 5.50204 33.0172 4.62988 33.4065C5.85239 34.1466 6.83885 34.7162 8.20298 35.3456C8.93682 36.902 9.69468 37.9535 10.9246 39.1533C10.6364 38.1313 10.5602 37.3191 10.6786 36.2463C12.2026 36.6856 13.508 36.9167 15.2399 36.9692Z" fill="white"/>
</g>
<mask id="mask2_1_2296" style="mask-type:luminance" maskUnits="userSpaceOnUse" x="-12" y="-12" width="179" height="70">
<path d="M-11.6299 -11.4993H166.616V57.4995H-11.6299V-11.4993Z" fill="white"/>
</mask>
<g mask="url(#mask2_1_2296)">
<path d="M19.5322 13.9119C19.0187 14.5716 18.4231 15.8018 18.2625 16.3731C22.5106 16.9427 25.9205 19.1022 25.9205 19.1022C22.205 18.4498 20.247 18.531 18.8605 18.6539C17.4831 18.7826 17.1998 18.9432 17.1998 18.9432C16.1984 21.1167 15.5963 24.8482 15.5963 24.8482C14.9213 23.2353 13.9439 20.0054 13.9439 20.0054C12.0696 20.9979 7.75684 25.0105 7.75684 25.0105C10.1273 20.3119 12.5334 18.1745 12.5334 18.1745C11.706 17.3451 9.5351 16.9312 7.94733 16.8615C8.77145 16.5288 10.886 16.1395 12.511 16.0649C14.1369 16.0198 15.1209 16.1108 15.1209 16.1108C16.5711 14.9773 18.7735 14.0225 19.5322 13.9119Z" fill="white"/>
</g>
<mask id="mask3_1_2296" style="mask-type:luminance" maskUnits="userSpaceOnUse" x="-12" y="-12" width="179" height="70">
<path d="M-11.6299 -11.4993H166.616V57.4995H-11.6299V-11.4993Z" fill="white"/>
</mask>
<g mask="url(#mask3_1_2296)">
<path d="M24.0397 34.0565C23.2901 35.0637 22.6441 35.8538 21.8125 36.7742C20.383 37.1717 19.2424 37.3192 17.8477 37.3192C18.7032 37.756 19.5323 38.0174 20.4252 38.2027C19.5323 39.0018 18.7778 39.5714 17.9106 40.1172C19.3642 39.7762 21.2742 39.1665 22.6963 38.3338C23.4392 38.3633 24.1341 38.3158 24.6435 38.2158C24.5102 37.7896 24.429 37.4716 24.3213 36.9168C25.6598 35.8907 26.6322 34.9621 27.7462 33.8458C26.5601 34.6646 25.5372 35.276 24.1648 35.9177C24.106 35.2916 24.072 34.7621 24.0397 34.0565Z" fill="white"/>
</g>
<mask id="mask4_1_2296" style="mask-type:luminance" maskUnits="userSpaceOnUse" x="-12" y="-12" width="179" height="70">
<path d="M-11.6299 -11.4993H166.616V57.4995H-11.6299V-11.4993Z" fill="white"/>
</mask>
<g mask="url(#mask4_1_2296)">
<path d="M56.7812 14.0412C56.7812 9.00164 60.8182 5.36439 67.4724 5.36439C69.0345 5.36439 70.5477 5.60206 72.0137 5.95857L71.0041 8.73937C70.0673 8.19272 68.9136 7.74114 67.4244 7.74114C63.052 7.74114 61.5388 11.1645 61.5388 14.0887C61.5388 18.1538 64.0608 20.1986 67.4484 20.1986C69.5629 20.1986 71.1482 19.2241 72.5662 17.9874L72.5902 21.5058C71.1482 22.0762 69.3708 22.5762 66.7038 22.5762C60.6012 22.5762 56.7812 18.8201 56.7812 14.0412Z" fill="#1D1D1B"/>
</g>
<mask id="mask5_1_2296" style="mask-type:luminance" maskUnits="userSpaceOnUse" x="-12" y="-12" width="179" height="70">
<path d="M-11.6299 -11.4993H166.616V57.4995H-11.6299V-11.4993Z" fill="white"/>
</mask>
<g mask="url(#mask5_1_2296)">
<path d="M85.6544 16.181C84.5495 13.5657 83.5887 11.3307 83.2524 10.5464C82.483 12.1634 81.6423 14.0648 80.7536 16.181C81.4741 16.2047 82.4598 16.2285 83.2524 16.2285C84.021 16.2285 84.8377 16.2047 85.6544 16.181ZM82.0026 5.64949H85.246C85.8945 7.36075 91.4207 19.533 92.7177 22.29H88.0811C87.8169 21.5295 87.2637 20.151 86.5431 18.3676C85.5823 18.3446 84.5975 18.32 83.2284 18.32C81.9545 18.32 80.9937 18.3446 79.8889 18.3676C79.3596 19.7707 78.9272 21.0541 78.5429 22.29H74.5068C75.4676 20.2223 81.1138 8.09755 82.0026 5.64949Z" fill="#1D1D1B"/>
</g>
<mask id="mask6_1_2296" style="mask-type:luminance" maskUnits="userSpaceOnUse" x="-12" y="-12" width="179" height="70">
<path d="M-11.6299 -11.4993H166.616V57.4995H-11.6299V-11.4993Z" fill="white"/>
</mask>
<g mask="url(#mask6_1_2296)">
<path d="M95.4043 13.5659C95.4043 10.6654 95.3803 7.19454 95.1641 5.64965H102.492C106.023 5.64965 110.228 6.62412 110.228 10.4753C110.228 12.6389 108.954 14.0888 106.431 14.8493C106.792 15.5632 110.852 21.6722 111.525 22.291H106.504C105.398 20.2224 102.9 16.0385 101.075 13.3282C101.387 13.3995 101.842 13.447 102.372 13.447C103.838 13.447 105.903 12.4013 105.903 10.4753C105.903 8.07394 102.972 7.64612 101.506 7.64612C100.762 7.64612 100.041 7.69366 99.6806 7.74119C99.5845 9.80979 99.5365 12.4013 99.5365 13.5659C99.5365 15.0395 99.5365 19.961 99.8007 22.291H95.1152C95.3554 19.9847 95.4043 17.013 95.4043 13.5659Z" fill="#1D1D1B"/>
</g>
<mask id="mask7_1_2296" style="mask-type:luminance" maskUnits="userSpaceOnUse" x="-12" y="-12" width="179" height="70">
<path d="M-11.6299 -11.4993H166.616V57.4995H-11.6299V-11.4993Z" fill="white"/>
</mask>
<g mask="url(#mask7_1_2296)">
<path d="M126.055 13.8749C126.055 9.00169 123.893 7.62235 119.785 7.71742L118.704 7.74119C118.608 8.83532 118.583 11.6637 118.583 13.5896C118.583 16.0148 118.583 17.9162 118.68 20.1749C118.921 20.1987 119.305 20.2462 119.881 20.2462C123.941 20.2462 126.055 18.9865 126.055 13.8749ZM114.403 13.5896C114.403 11.9735 114.403 7.81331 114.163 5.64965H120.674C127.761 5.64965 130.476 9.33444 130.476 13.9462C130.476 18.7013 127.833 22.291 120.41 22.291H114.163C114.403 20.056 114.403 16.9892 114.403 13.5896Z" fill="#1D1D1B"/>
</g>
<mask id="mask8_1_2296" style="mask-type:luminance" maskUnits="userSpaceOnUse" x="-12" y="-12" width="179" height="70">
<path d="M-11.6299 -11.4993H166.616V57.4995H-11.6299V-11.4993Z" fill="white"/>
</mask>
<g mask="url(#mask8_1_2296)">
<path d="M133.259 13.5894C133.259 11.9732 133.163 7.57539 133.042 5.6494H137.656C137.512 7.57539 137.416 11.9494 137.416 13.5894C137.416 15.04 137.44 19.9845 137.656 22.2908H132.995C133.235 19.9845 133.259 15.04 133.259 13.5894Z" fill="#1D1D1B"/>
</g>
<mask id="mask9_1_2296" style="mask-type:luminance" maskUnits="userSpaceOnUse" x="-12" y="-12" width="179" height="70">
<path d="M-11.6299 -11.4993H166.616V57.4995H-11.6299V-11.4993Z" fill="white"/>
</mask>
<g mask="url(#mask9_1_2296)">
<path d="M142.386 13.5894C142.386 11.9732 142.265 7.57539 142.122 5.6494H154.999V8.05075C153.677 7.97862 150.386 7.88437 149.281 7.88437C148.464 7.88437 147.551 7.88437 146.613 7.95485C146.542 8.97768 146.518 10.2611 146.518 11.379C146.518 11.9257 146.518 12.4248 146.542 12.8288L152.404 12.7338V15.3252L146.542 15.0876C146.566 17.2029 146.59 20.4836 146.806 22.2908H142.097C142.386 19.9845 142.386 15.04 142.386 13.5894Z" fill="#1D1D1B"/>
</g>
<mask id="mask10_1_2296" style="mask-type:luminance" maskUnits="userSpaceOnUse" x="-12" y="-12" width="179" height="70">
<path d="M-11.6299 -11.4993H166.616V57.4995H-11.6299V-11.4993Z" fill="white"/>
</mask>
<g mask="url(#mask10_1_2296)">
<path d="M58.2428 32.8994C58.2428 31.906 58.1848 29.0785 58.1078 27.8942H66.6413V29.6325C65.4834 29.499 64.5177 29.4793 63.5138 29.4793H61.2932C61.2543 30.3202 61.2543 31.4667 61.2543 32.2494L64.8266 32.1535V33.8927L61.2353 33.8353C61.2353 34.8098 61.2353 35.9752 61.2932 36.8726H63.4939C64.4017 36.8726 66.1394 36.8153 66.9312 36.7013V38.4011H58.0879C58.2237 36.9685 58.2428 33.8353 58.2428 32.8994Z" fill="#1D1D1B"/>
</g>
<mask id="mask11_1_2296" style="mask-type:luminance" maskUnits="userSpaceOnUse" x="-12" y="-12" width="179" height="70">
<path d="M-11.6299 -11.4993H166.616V57.4995H-11.6299V-11.4993Z" fill="white"/>
</mask>
<g mask="url(#mask11_1_2296)">
<path d="M69.2076 32.8994C69.2076 31.8675 69.1496 29.0785 69.0726 27.8942H72.3351C72.2581 29.0785 72.2001 31.8864 72.2001 32.8994C72.2001 33.6066 72.2192 35.4212 72.2581 36.8726H73.5908C75.1934 36.8726 76.4093 36.7964 77.6451 36.6817V38.4011H69.0527C69.2076 36.7964 69.2076 33.7976 69.2076 32.8994Z" fill="#1D1D1B"/>
</g>
<mask id="mask12_1_2296" style="mask-type:luminance" maskUnits="userSpaceOnUse" x="-12" y="-12" width="179" height="70">
<path d="M-11.6299 -11.4993H166.616V57.4995H-11.6299V-11.4993Z" fill="white"/>
</mask>
<g mask="url(#mask12_1_2296)">
<path d="M92.4404 32.88C92.4404 29.9386 90.6257 29.3837 88.7721 29.3837C88.4631 29.3837 88.0771 29.4222 87.7873 29.4411C87.7293 30.1861 87.7293 31.581 87.7293 32.6891C87.7293 34.1987 87.7293 35.5731 87.7873 36.9107C87.9612 36.9492 88.6942 36.9492 88.8491 36.9492C90.8568 36.9492 92.4404 35.9747 92.4404 32.88ZM84.7177 32.6891C84.7177 31.7146 84.7177 29.4222 84.543 27.8946H89.1191C93.7722 27.8946 95.4329 30.0148 95.4329 32.9374C95.4329 35.937 93.9072 38.4006 89.1771 38.4006H84.543C84.7177 36.8533 84.7177 34.7519 84.7177 32.6891Z" fill="#1D1D1B"/>
</g>
<mask id="mask13_1_2296" style="mask-type:luminance" maskUnits="userSpaceOnUse" x="-12" y="-12" width="179" height="70">
<path d="M-11.6299 -11.4993H166.616V57.4995H-11.6299V-11.4993Z" fill="white"/>
</mask>
<g mask="url(#mask13_1_2296)">
<path d="M96.1055 40.598V39.471C96.4724 39.5858 96.5113 39.5858 96.5883 39.5858C98.0552 39.5858 98.191 38.3245 98.191 36.4911C98.191 32.8801 98.1711 29.7657 98.0552 27.8946H101.299C101.222 29.0781 101.164 31.8859 101.164 32.8801V36.1657C101.164 37.8475 101.357 40.6365 96.7233 40.6365C96.5113 40.6365 96.3366 40.6365 96.1055 40.598Z" fill="#1D1D1B"/>
</g>
<mask id="mask14_1_2296" style="mask-type:luminance" maskUnits="userSpaceOnUse" x="-12" y="-12" width="179" height="70">
<path d="M-11.6299 -11.4993H166.616V57.4995H-11.6299V-11.4993Z" fill="white"/>
</mask>
<g mask="url(#mask14_1_2296)">
<path d="M109.542 34.9054L108.094 31.4288H108.055C107.824 32.0205 107.206 33.4531 106.646 34.9054C107.052 34.9431 107.553 34.9628 108.074 34.9628C108.653 34.9628 109.117 34.9431 109.542 34.9054ZM107.303 27.894H109.503C109.909 29.1545 113.404 36.7011 114.214 38.4009H110.912C110.739 37.9239 110.468 37.2355 110.159 36.4716C109.542 36.4528 108.711 36.4339 108.074 36.4339C107.438 36.4339 106.665 36.4716 106.047 36.4905C105.738 37.3117 105.468 38.019 105.352 38.4009H102.649C103.247 37.1019 106.665 29.5749 107.303 27.894Z" fill="#1D1D1B"/>
</g>
<mask id="mask15_1_2296" style="mask-type:luminance" maskUnits="userSpaceOnUse" x="-12" y="-12" width="179" height="70">
<path d="M-11.6299 -11.4993H166.616V57.4995H-11.6299V-11.4993Z" fill="white"/>
</mask>
<g mask="url(#mask15_1_2296)">
<path d="M114.984 37.3505L120.544 29.5179C119.966 29.4794 119.329 29.4409 118.71 29.4409C117.61 29.4409 116.644 29.499 115.447 29.613V27.8943H124.156V28.868L118.459 36.8727C120.255 36.8727 122.765 36.8153 124.232 36.7006V38.4004H114.984V37.3505Z" fill="#1D1D1B"/>
</g>
<mask id="mask16_1_2296" style="mask-type:luminance" maskUnits="userSpaceOnUse" x="-12" y="-12" width="179" height="70">
<path d="M-11.6299 -11.4993H166.616V57.4995H-11.6299V-11.4993Z" fill="white"/>
</mask>
<g mask="url(#mask16_1_2296)">
<path d="M131.895 34.9054L130.446 31.4288H130.407C130.176 32.0205 129.558 33.4531 128.998 34.9054C129.404 34.9431 129.905 34.9628 130.427 34.9628C131.006 34.9628 131.47 34.9431 131.895 34.9054ZM129.655 27.894H131.856C132.262 29.1545 135.756 36.7011 136.567 38.4009H133.265C133.092 37.9239 132.821 37.2355 132.513 36.4716C131.895 36.4528 131.064 36.4339 130.427 36.4339C129.79 36.4339 129.017 36.4716 128.399 36.4905C128.091 37.3117 127.821 38.019 127.705 38.4009H125.002C125.6 37.1019 129.017 29.5749 129.655 27.894Z" fill="#1D1D1B"/>
</g>
<mask id="mask17_1_2296" style="mask-type:luminance" maskUnits="userSpaceOnUse" x="-12" y="-12" width="179" height="70">
<path d="M-11.6299 -11.4993H166.616V57.4995H-11.6299V-11.4993Z" fill="white"/>
</mask>
<g mask="url(#mask17_1_2296)">
<path d="M140.581 25.7543C140.581 25.1044 141.121 24.5692 142.029 24.5692C142.937 24.5692 143.477 25.1044 143.477 25.7543C143.477 26.4043 142.937 26.9386 142.029 26.9386C141.121 26.9386 140.581 26.4043 140.581 25.7543ZM138.322 32.8994C138.322 31.9052 138.244 29.0785 138.167 27.8942H141.431C141.353 29.0785 141.296 31.8864 141.296 32.8994C141.296 33.8353 141.296 36.9685 141.431 38.4011H138.109C138.302 36.7964 138.322 33.7968 138.322 32.8994ZM136.043 25.7543C136.043 25.1044 136.565 24.5692 137.473 24.5692C138.36 24.5692 138.901 25.1044 138.901 25.7543C138.901 26.4043 138.36 26.9386 137.473 26.9386C136.565 26.9386 136.043 26.4043 136.043 25.7543Z" fill="#1D1D1B"/>
</g>
<mask id="mask18_1_2296" style="mask-type:luminance" maskUnits="userSpaceOnUse" x="-12" y="-12" width="179" height="70">
<path d="M-11.6299 -11.4993H166.616V57.4995H-11.6299V-11.4993Z" fill="white"/>
</mask>
<g mask="url(#mask18_1_2296)">
<path d="M144.44 32.88C144.44 31.122 144.421 28.9641 144.266 27.8946H149.055C151.333 27.8946 154.056 28.7158 154.056 31.1606C154.056 32.4784 152.975 33.5865 151.546 33.9881C151.932 34.6954 154.365 37.8474 154.886 38.4006H151.41C150.541 36.8918 149.132 34.4085 148.167 33.1283C148.379 33.1669 148.611 33.2046 148.843 33.2046C150 33.2046 151.063 32.5932 151.063 31.1417C151.063 29.6902 149.557 29.3649 148.225 29.3649C147.955 29.3649 147.722 29.3649 147.491 29.3837C147.433 30.6639 147.414 32.1924 147.414 32.88C147.414 33.7971 147.414 36.7959 147.588 38.4006H144.228C144.402 36.8344 144.44 35.0002 144.44 32.88Z" fill="#1D1D1B"/>
</g>
</g>
<defs>
<linearGradient id="paint0_linear_1_2296" x1="23.2433" y1="-1.13118" x2="23.2433" y2="47.426" gradientUnits="userSpaceOnUse">
<stop stop-color="#00774A"/>
<stop offset="0.6" stop-color="#8BCAAE"/>
<stop offset="1" stop-color="#00975F"/>
</linearGradient>
<linearGradient id="paint1_linear_1_2296" x1="23.1701" y1="-11.4259" x2="23.1701" y2="43.139" gradientUnits="userSpaceOnUse">
<stop stop-color="#00975F"/>
<stop offset="0.3" stop-color="#8BCAAE"/>
<stop offset="0.55" stop-color="#00975F"/>
<stop offset="0.835165" stop-color="#00774A"/>
<stop offset="0.878523" stop-color="#00774A"/>
<stop offset="1" stop-color="#00A071"/>
</linearGradient>
<linearGradient id="paint2_linear_1_2296" x1="32.0031" y1="40.1258" x2="32.0031" y2="4.81553" gradientUnits="userSpaceOnUse">
<stop stop-color="#00A97C"/>
<stop offset="1" stop-color="#00975F"/>
</linearGradient>
<linearGradient id="paint3_linear_1_2296" x1="9.86213" y1="40.1278" x2="9.86213" y2="4.80703" gradientUnits="userSpaceOnUse">
<stop stop-color="#00A97C"/>
<stop offset="1" stop-color="#00975F"/>
</linearGradient>
<linearGradient id="paint4_linear_1_2296" x1="16.7589" y1="40.12" x2="16.7589" y2="4.82069" gradientUnits="userSpaceOnUse">
<stop stop-color="#00A97C"/>
<stop offset="1" stop-color="#00975F"/>
</linearGradient>
<linearGradient id="paint5_linear_1_2296" x1="22.7222" y1="40.1254" x2="22.7222" y2="4.81486" gradientUnits="userSpaceOnUse">
<stop stop-color="#00A97C"/>
<stop offset="1" stop-color="#00975F"/>
</linearGradient>
<clipPath id="clip0_1_2296">
<rect width="155" height="46" fill="white"/>
</clipPath>
</defs>
</svg>
