<svg width="30" height="34" viewBox="0 0 30 34" fill="none" xmlns="http://www.w3.org/2000/svg">
<g clip-path="url(#clip0_11_1557)">
<g clip-path="url(#clip1_11_1557)">
<path d="M20.3983 9.48661C20.3983 10.9962 19.8122 12.444 18.7689 13.5114C17.7256 14.5789 16.3106 15.1786 14.8351 15.1786C13.3597 15.1786 11.9446 14.5789 10.9013 13.5114C9.85805 12.444 9.27193 10.9962 9.27193 9.48661C9.27193 7.97701 9.85805 6.52924 10.9013 5.46179C11.9446 4.39433 13.3597 3.79465 14.8351 3.79465C16.3106 3.79465 17.7256 4.39433 18.7689 5.46179C19.8122 6.52924 20.3983 7.97701 20.3983 9.48661ZM3.70874 24.6652C3.70874 26.5625 5.56314 26.5625 5.56314 26.5625H15.3098C14.9948 25.6483 14.8343 24.6859 14.8351 23.7165C14.8351 22.4965 15.0906 21.2906 15.5845 20.1801C16.0784 19.0696 16.7992 18.0803 17.6983 17.2789C16.8329 17.1461 15.8785 17.0784 14.8351 17.0759C5.56314 17.0759 3.70874 22.7679 3.70874 24.6652Z" fill="white" fill-opacity="0.6"/>
<path d="M29.6702 23.7165C29.6702 25.4777 28.9864 27.1668 27.7692 28.4122C26.552 29.6575 24.9012 30.3571 23.1798 30.3571C21.4585 30.3571 19.8076 29.6575 18.5904 28.4122C17.3733 27.1668 16.6895 25.4777 16.6895 23.7165C16.6895 21.9553 17.3733 20.2663 18.5904 19.0209C19.8076 17.7755 21.4585 17.0759 23.1798 17.0759C24.9012 17.0759 26.552 17.7755 27.7692 19.0209C28.9864 20.2663 29.6702 21.9553 29.6702 23.7165ZM23.1798 19.9219C22.9339 19.9219 22.6981 20.0218 22.5242 20.1997C22.3503 20.3776 22.2526 20.6189 22.2526 20.8705V23.7165C22.2526 23.9681 22.3503 24.2094 22.5242 24.3873C22.6981 24.5652 22.9339 24.6652 23.1798 24.6652C23.4257 24.6652 23.6616 24.5652 23.8355 24.3873C24.0093 24.2094 24.107 23.9681 24.107 23.7165V20.8705C24.107 20.6189 24.0093 20.3776 23.8355 20.1997C23.6616 20.0218 23.4257 19.9219 23.1798 19.9219ZM23.1798 27.5112C23.4257 27.5112 23.6616 27.4112 23.8355 27.2333C24.0093 27.0554 24.107 26.8141 24.107 26.5625C24.107 26.3109 24.0093 26.0696 23.8355 25.8917C23.6616 25.7138 23.4257 25.6138 23.1798 25.6138C22.9339 25.6138 22.6981 25.7138 22.5242 25.8917C22.3503 26.0696 22.2526 26.3109 22.2526 26.5625C22.2526 26.8141 22.3503 27.0554 22.5242 27.2333C22.6981 27.4112 22.9339 27.5112 23.1798 27.5112Z" fill="white" fill-opacity="0.6"/>
</g>
</g>
<defs>
<clipPath id="clip0_11_1557">
<rect width="30" height="34" fill="white"/>
</clipPath>
<clipPath id="clip1_11_1557">
<rect width="29.6703" height="30.3571" fill="white"/>
</clipPath>
</defs>
</svg>
