<svg width="28" height="34" viewBox="0 0 28 34" fill="none" xmlns="http://www.w3.org/2000/svg">
<g clip-path="url(#clip0_11_1562)">
<g clip-path="url(#clip1_11_1562)">
<path d="M15.6672 9.76172V0H1.54261C0.603321 0 -0.152344 0.768018 -0.152344 1.72266V35.0273C-0.152344 35.982 0.603321 36.75 1.54261 36.75H25.2719C26.2112 36.75 26.9669 35.982 26.9669 35.0273V11.4844H17.3621C16.4299 11.4844 15.6672 10.7092 15.6672 9.76172ZM4.36752 5.16797C4.36752 4.85071 4.62035 4.59375 4.93251 4.59375H10.5823C10.8945 4.59375 11.1473 4.85071 11.1473 5.16797V6.31641C11.1473 6.63366 10.8945 6.89062 10.5823 6.89062H4.93251C4.62035 6.89062 4.36752 6.63366 4.36752 6.31641V5.16797ZM4.36752 9.76172C4.36752 9.44446 4.62035 9.1875 4.93251 9.1875H10.5823C10.8945 9.1875 11.1473 9.44446 11.1473 9.76172V10.9102C11.1473 11.2274 10.8945 11.4844 10.5823 11.4844H4.93251C4.62035 11.4844 4.36752 11.2274 4.36752 10.9102V9.76172ZM17.9843 27.5625H21.317C21.9413 27.5625 22.447 28.0764 22.447 28.7109C22.447 29.3454 21.9413 29.8594 21.317 29.8594H17.9843C16.8226 29.8594 15.7759 29.2033 15.2555 28.1468C15.0471 27.7218 14.6841 27.6788 14.5372 27.6788C14.3903 27.6788 14.0273 27.7211 13.8296 28.1231L13.2879 29.2241C13.1941 29.4149 13.0499 29.5753 12.8713 29.6874C12.6928 29.7995 12.4871 29.8588 12.2773 29.8587C12.2505 29.8587 12.2243 29.8572 12.1968 29.8551C11.7413 29.8228 11.3493 29.5141 11.2059 29.0734L10.0174 25.4515L9.26805 27.7398C8.85208 29.0074 7.68751 29.8594 6.37251 29.8594H5.49749C4.87318 29.8594 4.36752 29.3454 4.36752 28.7109C4.36752 28.0764 4.87318 27.5625 5.49749 27.5625H6.37251C6.71362 27.5625 7.01588 27.3414 7.12394 27.0127L8.40857 23.0908C8.64162 22.3866 9.28712 21.9129 10.0174 21.9129C10.7476 21.9129 11.3931 22.3859 11.6254 23.0908L12.6057 26.0796C14.0019 24.9175 16.4229 25.3833 17.2668 27.0959C17.4095 27.3874 17.6877 27.5625 17.9843 27.5625ZM26.4725 7.53662L19.5585 0.502441C19.2407 0.179443 18.8099 0 18.3579 0H17.9271V9.1875H26.9669V8.74966C26.9669 8.29746 26.7903 7.85962 26.4725 7.53662Z" fill="white" fill-opacity="0.6"/>
</g>
</g>
<defs>
<clipPath id="clip0_11_1562">
<rect width="27.3" height="33.6" fill="white"/>
</clipPath>
<clipPath id="clip1_11_1562">
<rect width="27.3" height="33.6" fill="white"/>
</clipPath>
</defs>
</svg>
