<svg width="31" height="36" viewBox="0 0 31 36" fill="none" xmlns="http://www.w3.org/2000/svg">
<g clip-path="url(#clip0_14_1578)">
<path d="M23.6806 0.00151065C24.6624 0.00138458 25.6078 0.390842 26.3255 1.09118C27.0432 1.79151 27.4797 2.75049 27.5469 3.77431L27.5556 4.04971V22.2801C27.3489 22.4241 27.1508 22.5933 26.9683 22.7841L21.0972 28.9185L19.5334 27.2805C18.8458 26.56 17.9231 26.1376 16.9501 26.0979H21.0972C21.4398 26.0979 21.7683 25.9557 22.0106 25.7025C22.2528 25.4493 22.3889 25.106 22.3889 24.7479C22.3889 24.3899 22.2528 24.0465 22.0106 23.7933C21.7683 23.5401 21.4398 23.3979 21.0972 23.3979H12.4792C12.1367 23.3979 11.8081 23.5401 11.5659 23.7933C11.3236 24.0465 11.1876 24.3899 11.1876 24.7479C11.1876 25.106 11.3236 25.4493 11.5659 25.7025C11.8081 25.9557 12.1367 26.0979 12.4792 26.0979H16.6349C15.8826 26.1298 15.1554 26.3901 14.5422 26.847C13.9291 27.3039 13.4567 27.9376 13.1826 28.6707C12.9086 29.4037 12.8448 30.2043 12.9992 30.9746C13.1535 31.7449 13.5192 32.4516 14.0516 33.0081L16.9088 35.9961H3.875C2.89312 35.9962 1.9478 35.6068 1.23009 34.9064C0.512386 34.2061 0.0758159 33.2471 0.00861134 32.2233L2.92756e-08 31.9497V4.05151C-0.000120593 3.02528 0.372508 2.03727 1.04258 1.28715C1.71265 0.537036 2.6302 0.0807504 3.60978 0.0105109L3.875 0.00151065H23.6806ZM8.61111 10.3515C8.61111 9.87412 8.42966 9.41628 8.10668 9.07872C7.7837 8.74115 7.34565 8.55151 6.88889 8.55151C6.43213 8.55151 5.99407 8.74115 5.67109 9.07872C5.34811 9.41628 5.16667 9.87412 5.16667 10.3515C5.16667 10.8289 5.34811 11.2867 5.67109 11.6243C5.99407 11.9619 6.43213 12.1515 6.88889 12.1515C7.34565 12.1515 7.7837 11.9619 8.10668 11.6243C8.42966 11.2867 8.61111 10.8289 8.61111 10.3515ZM12.4792 8.99971C12.1367 8.99971 11.8081 9.14194 11.5659 9.39512C11.3236 9.64829 11.1876 9.99167 11.1876 10.3497C11.1876 10.7078 11.3236 11.0511 11.5659 11.3043C11.8081 11.5575 12.1367 11.6997 12.4792 11.6997H21.0972C21.4398 11.6997 21.7683 11.5575 22.0106 11.3043C22.2528 11.0511 22.3889 10.7078 22.3889 10.3497C22.3889 9.99167 22.2528 9.64829 22.0106 9.39512C21.7683 9.14194 21.4398 8.99971 21.0972 8.99971H12.4792ZM11.1876 17.5497C11.1876 18.2949 11.7662 18.8997 12.4792 18.8997H21.0972C21.2668 18.8997 21.4348 18.8648 21.5915 18.7969C21.7482 18.7291 21.8906 18.6297 22.0106 18.5043C22.1305 18.3789 22.2257 18.2301 22.2906 18.0663C22.3555 17.9025 22.3889 17.727 22.3889 17.5497C22.3889 17.3724 22.3555 17.1969 22.2906 17.0331C22.2257 16.8693 22.1305 16.7205 22.0106 16.5951C21.8906 16.4698 21.7482 16.3703 21.5915 16.3025C21.4348 16.2346 21.2668 16.1997 21.0972 16.1997H12.4792C12.1367 16.1997 11.8081 16.3419 11.5659 16.5951C11.3236 16.8483 11.1876 17.1917 11.1876 17.5497ZM8.61111 17.5497C8.61111 17.0723 8.42966 16.6145 8.10668 16.2769C7.7837 15.9394 7.34565 15.7497 6.88889 15.7497C6.43213 15.7497 5.99407 15.9394 5.67109 16.2769C5.34811 16.6145 5.16667 17.0723 5.16667 17.5497C5.16667 18.0271 5.34811 18.4849 5.67109 18.8225C5.99407 19.1601 6.43213 19.3497 6.88889 19.3497C7.34565 19.3497 7.7837 19.1601 8.10668 18.8225C8.42966 18.4849 8.61111 18.0271 8.61111 17.5497ZM8.61111 24.7461C8.61111 24.2687 8.42966 23.8109 8.10668 23.4733C7.7837 23.1358 7.34565 22.9461 6.88889 22.9461C6.43213 22.9461 5.99407 23.1358 5.67109 23.4733C5.34811 23.8109 5.16667 24.2687 5.16667 24.7461C5.16667 25.2235 5.34811 25.6813 5.67109 26.0189C5.99407 26.3565 6.43213 26.5461 6.88889 26.5461C7.34565 26.5461 7.7837 26.3565 8.10668 26.0189C8.42966 25.6813 8.61111 25.2235 8.61111 24.7461ZM21.0972 32.7399L28.7956 24.6939C28.9148 24.565 29.0573 24.4623 29.215 24.3916C29.3726 24.3209 29.5421 24.2838 29.7136 24.2823C29.8851 24.2808 30.0552 24.3151 30.2139 24.383C30.3726 24.451 30.5168 24.5513 30.638 24.6781C30.7592 24.8049 30.855 24.9557 30.9199 25.1216C30.9848 25.2876 31.0174 25.4653 31.0158 25.6446C31.0142 25.8238 30.9785 26.001 30.9108 26.1656C30.843 26.3303 30.7445 26.4792 30.6211 26.6037L22.01 35.6037C21.7678 35.8565 21.4395 35.9985 21.0972 35.9985C20.7549 35.9985 20.4266 35.8565 20.1844 35.6037L15.8789 31.1019C15.6507 30.846 15.5265 30.5075 15.5324 30.1578C15.5383 29.808 15.6739 29.4743 15.9105 29.227C16.1472 28.9797 16.4665 28.838 16.8011 28.8318C17.1357 28.8256 17.4596 28.9554 17.7044 29.1939L21.0972 32.7399Z" fill="white"/>
</g>
<defs>
<clipPath id="clip0_14_1578">
<rect width="31" height="36" fill="white"/>
</clipPath>
</defs>
</svg>
