<svg width="26" height="23" viewBox="0 0 26 23" fill="none" xmlns="http://www.w3.org/2000/svg">
<path d="M12.6771 0.271484C14.3126 0.271484 15.8811 0.850947 17.0376 1.8824C18.194 2.91385 18.8438 4.31279 18.8438 5.77148C18.8438 7.23018 18.194 8.62912 17.0376 9.66057C15.8811 10.692 14.3126 11.2715 12.6771 11.2715C11.0416 11.2715 9.47307 10.692 8.31659 9.66057C7.16012 8.62912 6.51042 7.23018 6.51042 5.77148C6.51042 4.31279 7.16012 2.91385 8.31659 1.8824C9.47307 0.850947 11.0416 0.271484 12.6771 0.271484ZM12.6771 14.0215C19.4913 14.0215 25.0104 16.4827 25.0104 19.5215V22.2715H0.34375V19.5215C0.34375 16.4827 5.86292 14.0215 12.6771 14.0215Z" fill="#00915A"/>
</svg>
